<svg width="48" height="60" viewBox="0 0 48 60" fill="none" xmlns="http://www.w3.org/2000/svg">
<path d="M24 0C10.7314 0 0 9.39 0 21C0 33.51 15.1543 50.76 21.3943 57.33C22.7657 58.77 25.2686 58.77 26.64 57.33C32.8457 50.76 48 33.51 48 21C48 9.39 37.2686 0 24 0ZM24 28.5C21.7267 28.5 19.5465 27.7098 17.9391 26.3033C16.3316 24.8968 15.4286 22.9891 15.4286 21C15.4286 19.0109 16.3316 17.1032 17.9391 15.6967C19.5465 14.2902 21.7267 13.5 24 13.5C26.2733 13.5 28.4535 14.2902 30.0609 15.6967C31.6684 17.1032 32.5714 19.0109 32.5714 21C32.5714 22.9891 31.6684 24.8968 30.0609 26.3033C28.4535 27.7098 26.2733 28.5 24 28.5Z" fill="#75BAEF"/>
</svg>
