<?xml version="1.0" encoding="UTF-8"?>
<!DOCTYPE svg PUBLIC "-//W3C//DTD SVG 1.1//EN" "http://www.w3.org/Graphics/SVG/1.1/DTD/svg11.dtd">
<!-- Creator: CorelDRAW 2020 (64-Bit) -->
<svg xmlns="http://www.w3.org/2000/svg" xml:space="preserve" width="151.691mm" height="67.8087mm" version="1.1" style="shape-rendering:geometricPrecision; text-rendering:geometricPrecision; image-rendering:optimizeQuality; fill-rule:evenodd; clip-rule:evenodd"
viewBox="0 0 17750.19 7934.67"
 xmlns:xlink="http://www.w3.org/1999/xlink"
 xmlns:xodm="http://www.corel.com/coreldraw/odm/2003">
 <defs>
  <style type="text/css">
   <![CDATA[
    .str0 {stroke:#2B2A29;stroke-width:23.4;stroke-miterlimit:22.9256}
    .fil0 {fill:#FEFEFE}
    .fil1 {fill:#A7231F}
   ]]>
  </style>
 </defs>
 <g id="Слой_x0020_1">
  <metadata id="CorelCorpID_0Corel-Layer"/>
  <path class="fil0 str0" d="M3802.09 1455.28c25.79,-85.8 60.63,-240.61 98.04,-382.5 37.41,-141.9 77.39,-270.91 104.49,-367.02 27.09,-96.1 41.27,-159.32 15.48,-227.05 -25.8,-67.73 -91.6,-139.96 -188.99,-198.66 -97.39,-58.7 -226.4,-103.85 -356.46,-145.1 -130.07,-41.26 -261.23,-78.61 -409.36,-99.55 -148.14,-20.93 -313.26,-25.45 -470.65,-23.18 -157.39,2.26 -307.03,11.28 -461.9,46.99 -154.88,35.7 -315.01,98.09 -484.07,184.76 -169.08,86.66 -347.09,197.6 -514.93,343.45 -167.84,145.84 -325.49,326.58 -462.36,500.8 -136.87,174.22 -252.98,341.92 -345.85,519.95 -92.89,178.02 -162.55,366.36 -215.91,553.95 -53.36,187.58 -90.43,374.39 -96.88,571.77 -6.46,197.37 17.7,405.3 40.1,551.83 22.4,146.53 43.03,231.67 88.18,334.88 45.14,103.2 114.82,224.46 216.72,343.15 101.91,118.68 236.08,234.77 381.86,349.58 145.77,114.82 303.14,228.33 447.63,335.41 144.48,107.07 276.05,207.69 374.1,296.7 98.04,89 162.53,166.41 203.82,251.55 41.28,85.14 59.34,178.02 61.92,261.87 2.57,83.85 -10.32,158.67 -40,254.13 -29.68,95.46 -76.11,211.56 -123.84,310.9 -47.73,99.33 -96.76,181.89 -131.58,246.4 -34.84,64.5 -55.47,110.93 -72.23,166.41 -16.78,55.47 -29.68,119.96 -29.68,168.98 0,49.02 12.9,82.57 34.84,99.33 21.93,16.77 52.88,16.77 101.91,-5.16 49.02,-21.93 116.09,-65.79 196.08,-147.05 79.98,-81.28 172.86,-199.96 274.78,-334.11 101.91,-134.17 212.85,-283.81 304.44,-428.29 91.59,-144.48 163.83,-283.81 207.69,-412.81 43.86,-129 59.34,-247.69 59.34,-363.78 0,-116.1 -15.48,-229.63 -94.17,-361.2 -78.69,-131.58 -220.59,-281.24 -385.71,-405.07 -165.12,-123.85 -353.47,-221.88 -500.52,-312.19 -147.07,-90.3 -252.85,-172.87 -348.31,-269.62 -95.46,-96.75 -180.6,-207.69 -248.97,-330.24 -68.37,-122.55 -119.98,-256.72 -145.78,-403.77 -25.8,-147.07 -25.8,-307.03 -7.73,-466.99 18.06,-159.96 54.18,-319.93 107.07,-487.63 52.89,-167.71 122.55,-343.15 203.83,-499.24 81.27,-156.1 174.14,-292.84 286.38,-417.97 112.23,-125.14 243.8,-238.66 372.94,-330.97 129.13,-92.3 255.81,-163.4 396.43,-207.26 140.61,-43.86 295.15,-60.49 440.41,-66.16 145.25,-5.68 281.24,-0.4 373.29,19.04 92.06,19.44 140.21,53.04 187.04,103.29 46.82,50.25 92.31,117.16 126.68,202.21 34.36,85.05 57.58,188.24 76.29,299.19 18.7,110.94 32.89,229.63 43.21,308.32 10.32,78.68 16.78,117.39 29.69,141.9 12.9,24.5 32.24,34.82 56.75,42.57 24.5,7.73 54.18,12.9 82.55,12.9 28.38,0 55.48,-5.16 77.41,-16.14 21.92,-10.98 38.69,-27.76 64.48,-113.55z"/>
  <path class="fil0 str0" d="M5305.35 176.32c-32.58,-0.66 -60.32,1.28 -89.98,8.06 -29.68,6.78 -61.27,18.39 -88.03,37.11 -26.77,18.71 -48.71,44.5 -64.63,75.15 -15.93,30.65 -25.84,66.14 -27.77,99.69 -1.94,33.54 4.11,65.12 14.87,99.63 10.75,34.5 26.23,71.92 55.27,99.65 29.02,27.73 71.59,45.8 118.68,54.83 47.09,9.02 98.68,9.02 145.12,1.29 46.44,-7.75 87.73,-23.23 118.05,-48.39 30.32,-25.16 49.66,-59.98 61.28,-94.16 11.61,-34.19 15.47,-67.74 13.09,-103.04 -2.39,-35.32 -11.01,-72.4 -25.21,-102.7 -14.19,-30.32 -33.93,-53.87 -55.42,-72.74 -21.5,-18.87 -44.71,-33.06 -75.03,-41.77 -30.32,-8.72 -67.73,-11.95 -100.29,-12.59z"/>
  <path class="fil0 str0" d="M4789.04 2036.62c0.63,-59.99 -3.23,-89.66 -18.07,-112.23 -14.84,-22.58 -40.64,-38.07 -71.6,-57.41 -30.96,-19.35 -67.07,-42.58 -87.07,-68.37 -20,-25.8 -23.86,-54.19 -19.34,-79.98 4.51,-25.8 17.41,-49.03 54.82,-60.64 37.41,-11.61 99.32,-11.61 178.02,-8.38 78.69,3.22 174.15,9.68 250.92,21.93 76.75,12.25 134.8,30.32 170.92,65.15 36.12,34.82 50.3,86.42 49.66,157.37 -0.64,70.95 -16.12,161.25 -42.57,283.15 -26.45,121.91 -63.86,275.42 -101.25,423.77 -37.41,148.35 -74.82,291.56 -114.16,427.66 -39.34,136.09 -80.61,265.1 -110.28,368.31 -29.68,103.2 -47.74,180.59 -64.51,252.84 -16.77,72.25 -32.25,139.32 -46.43,210.28 -14.19,70.95 -27.1,145.77 -32.26,205.76 -5.16,59.98 -2.57,105.13 6.46,141.89 9.02,36.77 24.5,65.15 61.91,87.73 37.41,22.57 96.75,39.34 137.39,52.25 40.63,12.9 62.57,21.92 75.48,43.2 12.9,21.29 16.76,54.83 10.95,81.28 -5.8,26.45 -21.29,45.79 -64.5,58.05 -43.21,12.25 -114.17,17.41 -201.89,21.93 -87.73,4.52 -192.21,8.38 -272.19,3.22 -79.99,-5.16 -135.46,-19.34 -178.67,-61.27 -43.23,-41.93 -74.18,-111.59 -73.53,-237.35 0.64,-125.78 32.89,-307.68 69.66,-474.09 36.77,-166.41 78.06,-317.35 128.38,-492.14 50.3,-174.8 109.66,-373.46 159.97,-546.32 50.3,-172.87 91.58,-319.92 114.79,-438.6 23.22,-118.69 28.35,-209 29,-268.98z"/>
  <path class="fil0 str0" d="M9675.62 3388.82c34.82,-174.42 60.43,-327.82 92.36,-480.69 31.93,-152.88 70.21,-305.24 94.49,-415.26 24.29,-110.03 34.6,-177.76 41.76,-239.6 7.16,-61.84 11.17,-117.8 2.38,-161.66 -8.8,-43.86 -30.42,-75.62 -61.88,-92.77 -31.44,-17.17 -72.71,-19.75 -105.92,-30.28 -33.2,-10.53 -58.33,-29.02 -73.32,-47.13 -14.98,-18.11 -19.83,-35.84 -15.01,-58.85 4.83,-23.02 19.32,-51.29 57.52,-77.03 38.22,-25.76 100.13,-48.98 181.4,-63.17 81.28,-14.19 181.9,-19.35 276.06,-18.06 94.17,1.29 181.9,9.02 246.4,38.7 64.5,29.68 105.78,81.27 149.21,110.3 43.44,29.02 89.01,35.48 148.35,13.55 59.34,-21.93 132.43,-72.23 216.06,-113.83 83.64,-41.6 177.81,-74.5 269.56,-103.06 91.76,-28.56 181.09,-52.79 282.36,-55.69 101.28,-2.91 214.49,15.5 314.95,35.03 100.46,19.52 188.18,40.16 275.9,93.05 87.73,52.89 175.44,138.03 242.53,193.51 67.09,55.47 113.52,81.26 189.62,59.33 76.12,-21.93 181.9,-91.59 310.9,-145.77 129.01,-54.18 281.22,-92.89 403.77,-109.66 122.55,-16.77 215.44,-11.61 323.79,-1.29 108.36,10.32 232.21,25.8 350.88,82.57 118.69,56.75 232.21,154.8 290.26,279.94 58.05,125.12 60.64,277.34 43.86,481.17 -16.77,203.82 -52.88,459.25 -86.43,639.85 -33.54,180.6 -64.5,286.38 -96.75,393.45 -32.25,107.07 -65.8,215.44 -86.44,318.86 -20.64,103.41 -28.38,201.89 -25.8,280.58 2.59,78.68 15.48,137.6 68.37,174.8 52.9,37.19 145.78,52.67 210.28,81.06 64.51,28.38 100.62,69.65 110.94,109.64 10.32,39.98 -5.16,78.69 -52.89,107.07 -47.73,28.38 -127.71,46.44 -269.62,51.6 -141.89,5.16 -345.72,-2.59 -466.99,-14.19 -121.25,-11.61 -159.96,-27.09 -181.89,-103.2 -21.93,-76.12 -27.09,-212.85 3.87,-434.74 30.96,-221.88 98.04,-528.91 157.37,-785.62 59.35,-256.72 110.94,-463.12 131.58,-634.69 20.64,-171.58 10.32,-308.31 -12.91,-402.49 -23.22,-94.17 -59.33,-145.77 -119.96,-181.89 -60.63,-36.12 -145.77,-56.76 -233.49,-59.34 -87.71,-2.59 -178.02,12.9 -265.74,28.38 -87.71,15.48 -172.87,30.96 -243.83,56.76 -70.95,25.8 -127.7,61.91 -181.89,100.62 -54.18,38.7 -105.77,79.97 -148.34,154.8 -42.57,74.82 -76.12,183.18 -110.95,336.69 -34.82,153.51 -70.93,352.18 -113.51,563.75 -42.57,211.55 -91.6,436.02 -136.76,638.55 -45.14,202.53 -86.42,383.13 -106.44,503.12 -20.01,119.98 -18.77,179.33 -93.59,203.84 -74.82,24.51 -225.71,14.17 -336.01,4.51 -110.3,-9.68 -179.99,-18.7 -178.71,-148.98 1.29,-130.3 73.58,-381.86 138.1,-626.33 64.52,-244.47 121.27,-481.84 170.29,-695.97 49.03,-214.15 90.3,-405.07 107.07,-546.97 16.78,-141.9 9.03,-234.79 -16.77,-309.61 -25.79,-74.82 -69.66,-131.57 -131.58,-176.72 -61.91,-45.16 -141.89,-78.7 -216.75,-99.65 -74.84,-20.96 -144.56,-29.31 -223.29,-28.97 -78.72,0.33 -166.43,9.35 -255.42,38.04 -88.98,28.69 -179.22,77.04 -246.27,121.86 -67.05,44.82 -110.92,86.1 -158.65,234.45 -47.73,148.35 -99.32,403.77 -153.51,690.16 -54.18,286.38 -110.93,603.73 -153.85,863.35 -42.91,259.62 -71.98,461.53 -144.87,562.15 -72.89,100.62 -189.59,99.95 -301.48,91.89 -111.89,-8.07 -218.96,-23.56 -272.49,-54.52 -53.53,-30.96 -53.53,-77.39 -35.48,-188.98 18.07,-111.59 54.18,-288.33 94.26,-474.4 40.09,-186.09 84.13,-381.52 118.96,-555.94z"/>
  <path class="fil1 str0" d="M2331.54 1360.28c-91.6,75.46 -218.02,200.6 -332.18,330.9 -114.17,130.3 -216.07,265.75 -292.18,391.53 -76.12,125.77 -126.44,241.86 -161.91,359.25 -35.48,117.38 -56.11,236.07 -62.56,354.74 -6.46,118.68 1.29,237.37 27.09,344.44 25.79,107.07 69.66,202.53 168.99,313.47 99.32,110.94 254.12,237.37 432.15,361.22 178.02,123.84 379.26,245.09 526.32,363.78 147.07,118.68 239.94,234.78 314.77,341.85 74.82,107.07 131.57,205.12 168.98,344.44 37.41,139.32 55.48,319.92 47.74,519.88 -7.75,199.96 -41.29,419.26 -89.03,599.87 -47.73,180.6 -109.64,322.49 -181.89,469.56 -72.25,147.07 -154.81,299.29 -265.75,423.14 -110.94,123.84 -250.25,219.29 -377.96,304.43 -127.71,85.14 -243.81,159.96 -379.26,208.98 -135.46,49.02 -290.27,72.25 -430.87,78.69 -140.62,6.45 -267.03,-3.86 -368.94,-42.56 -101.92,-38.71 -179.31,-105.78 -243.81,-228.33 -64.51,-122.56 -116.1,-300.58 -157.39,-429.58 -41.28,-129.01 -72.25,-208.99 -127.71,-258.01 -55.48,-49.03 -135.46,-67.09 -197.37,-47.73 -61.92,19.34 -105.79,76.11 -159.97,277.35 -54.18,201.24 -118.68,546.97 -121.25,739.18 -2.59,192.21 56.75,230.92 153.5,268.33 96.75,37.41 230.92,73.53 383.14,103.21 152.21,29.66 322.51,52.89 527.62,64.5 205.1,11.61 445.05,11.61 715.95,-42.57 270.9,-54.19 572.77,-162.55 825.62,-294.13 252.84,-131.58 456.66,-286.38 641.14,-476.01 184.46,-189.64 349.6,-414.11 476.02,-635.98 126.42,-221.88 214.14,-441.2 276.06,-666.94 61.92,-225.76 98.04,-457.96 105.78,-656.62 7.73,-198.67 -12.91,-363.79 -50.32,-525.04 -37.41,-161.26 -91.59,-318.63 -171.57,-461.83 -79.98,-143.19 -185.76,-272.2 -317.35,-392.17 -131.58,-119.98 -288.96,-230.92 -423.12,-319.93 -134.17,-89.01 -245.11,-156.09 -348.31,-228.33 -103.21,-72.25 -198.67,-149.64 -286.38,-221.88 -87.73,-72.25 -167.71,-139.32 -221.88,-216.71 -54.18,-77.41 -82.57,-165.13 -78.69,-277.36 3.87,-112.23 39.98,-248.97 98.04,-396.04 58.05,-147.07 138.03,-304.44 201.24,-425.7 63.21,-121.26 109.66,-206.4 125.14,-269.62 15.48,-63.21 0,-104.48 -32.25,-130.29 -32.25,-25.8 -81.28,-36.12 -134.17,-28.38 -52.89,7.73 -109.64,33.54 -201.23,109.01z"/>
  <path class="fil0 str0" d="M5915.21 3216.79c-11.61,90.3 -19.35,193.5 -20.64,291.54 -1.29,98.04 3.87,190.92 15.48,279.94 11.61,89 29.68,174.14 54.45,263.03 24.76,88.87 56.23,181.49 98.8,252.45 42.57,70.95 96.25,120.23 154.04,160.36 57.79,40.12 119.71,71.08 203.56,96.88 83.85,25.8 189.64,46.44 288.97,51.6 99.33,5.16 192.21,-5.16 281.22,-23.22 89.01,-18.07 174.15,-43.87 242.53,-69.67 68.37,-25.8 119.96,-51.59 167.7,-72.23 47.73,-20.64 91.6,-36.12 126.44,-37.41 34.82,-1.3 60.61,11.61 68.36,58.05 7.73,46.43 -2.57,126.42 -36.11,236.08 -33.55,109.64 -90.31,248.96 -138.04,376.67 -47.73,127.71 -86.43,243.81 -135.05,349.65 -48.62,105.84 -107.15,201.41 -158.76,267.21 -51.6,65.79 -96.27,101.8 -144.42,129.27 -48.15,27.45 -99.8,46.35 -160.36,54.7 -60.56,8.34 -130.04,6.14 -216.44,-12.35 -86.42,-18.49 -189.75,-53.24 -285.28,-96.42 -95.53,-43.19 -183.26,-94.78 -258.08,-132.19 -74.82,-37.41 -136.74,-60.64 -192.21,-72.25 -55.48,-11.61 -104.49,-11.61 -148.35,3.87 -43.86,15.48 -82.57,46.44 -105.78,109.66 -23.23,63.21 -30.96,158.67 -29.68,236.08 1.29,77.39 11.61,136.73 67.09,176.73 55.47,39.98 156.09,60.63 335.4,87.71 179.31,27.09 437.31,60.64 656.62,58.06 219.3,-2.59 399.9,-41.29 553.41,-101.92 153.51,-60.64 279.94,-143.19 408.95,-304.44 129,-161.26 260.57,-401.21 384.42,-705.65 123.84,-304.44 239.94,-673.39 325.08,-1001.04 85.14,-327.67 139.33,-614.05 186.21,-850.55 46.86,-236.51 86.42,-423.13 132.86,-596 46.44,-172.87 99.76,-331.96 144.48,-461.83 44.72,-129.86 80.85,-230.49 98.9,-304.02 18.07,-73.53 18.07,-119.96 1.3,-161.25 -16.77,-41.28 -50.32,-77.41 -86.44,-94.17 -36.11,-16.77 -74.82,-14.19 -117.39,-2.57 -42.57,11.61 -89,32.24 -143.18,42.56 -54.19,10.32 -116.11,10.32 -203.83,-1.29 -87.73,-11.61 -201.26,-34.84 -326.38,-56.76 -125.14,-21.93 -261.87,-42.56 -425.7,-38.69 -163.83,3.86 -354.76,32.25 -503.11,79.98 -148.35,47.73 -254.13,114.8 -353.83,183.69 -99.7,68.88 -193.32,139.54 -283.99,232.93 -90.68,93.39 -178.39,209.49 -241.66,313.7 -63.28,104.2 -102.1,196.49 -137.84,287.58 -35.76,91.08 -68.44,180.95 -92.52,264.6 -24.08,83.63 -39.56,161.03 -51.17,251.34zm663.09 183.2c2.57,-78.69 10.31,-150.93 30.95,-250.26 20.64,-99.33 54.19,-225.75 89.03,-330.24 34.82,-104.49 70.93,-187.05 113.51,-267.03 42.57,-79.99 91.6,-157.39 137.86,-222.51 46.24,-65.12 89.72,-117.95 142.76,-168.09 53.03,-50.15 115.62,-97.6 179.02,-133.11 63.4,-35.51 127.62,-59.06 212.62,-77.28 84.99,-18.23 190.77,-31.14 292.69,-27.26 101.91,3.87 199.94,24.51 265.74,54.19 65.79,29.66 99.33,68.37 108.37,131.58 9.02,63.2 -6.46,150.93 -34.84,265.74 -28.39,114.8 -69.67,256.7 -114.82,445.05 -45.16,188.34 -94.17,423.13 -144.48,617.92 -50.32,194.78 -101.92,349.6 -175.52,456.86 -73.61,107.26 -169.22,166.97 -269.84,204.38 -100.62,37.41 -206.25,52.52 -289.59,55.55 -83.35,3.03 -144.42,-5.99 -206.09,-30.63 -61.67,-24.64 -123.93,-64.9 -168.22,-114.56 -44.29,-49.67 -70.61,-108.74 -95.37,-170.53 -24.76,-61.8 -47.99,-126.31 -60.88,-201.13 -12.91,-74.82 -15.48,-159.96 -12.9,-238.65z"/>
  <path class="fil0 str0" d="M14927.44 3217.95c-22.57,137.07 -29.02,273.16 -27.73,390.54 1.29,117.38 10.32,216.05 25.15,334.08 14.83,118.03 35.46,255.44 81.24,368.01 45.8,112.56 116.75,200.27 192.87,272.19 76.12,71.91 157.4,128 274.14,157.35 116.76,29.34 268.98,31.91 408.3,-2.27 139.33,-34.18 265.74,-105.14 370.88,-170.28 105.14,-65.14 188.99,-124.49 259.94,-155.44 70.96,-30.96 129.01,-33.55 172.22,10.32 43.21,43.86 71.6,134.16 96.75,201.24 25.16,67.07 47.09,110.94 132.87,139.32 85.78,28.38 235.44,41.28 348.95,37.41 113.53,-3.87 190.92,-24.51 230.92,-68.69 40,-44.17 42.57,-111.88 7.73,-145.73 -34.82,-33.85 -107.06,-33.85 -163.41,-63.6 -56.34,-29.75 -96.8,-89.25 -110.35,-185.04 -13.54,-95.8 -0.19,-227.89 31,-381.66 31.2,-153.77 80.23,-329.21 136.98,-556.25 56.76,-227.05 121.27,-505.69 179.97,-744.99 58.7,-239.3 111.59,-439.25 139.96,-570.19 28.39,-130.94 32.25,-192.85 -0.64,-230.91 -32.89,-38.07 -102.56,-52.25 -158.68,-39.34 -56.11,12.9 -98.68,52.88 -135.45,76.75 -36.77,23.86 -67.72,31.61 -116.75,10.32 -49.02,-21.29 -116.09,-71.6 -187.05,-107.07 -70.95,-35.48 -145.78,-56.12 -238.66,-76.42 -92.88,-20.31 -203.82,-40.29 -325.41,-38.66 -121.58,1.63 -253.81,24.84 -373.14,59.99 -119.33,35.15 -225.78,82.22 -338.67,146.39 -112.88,64.17 -232.21,145.45 -341.22,239.62 -109,94.17 -207.68,201.24 -284.76,316.7 -77.07,115.45 -132.52,239.27 -179.61,370.21 -47.08,130.94 -85.78,269.01 -108.36,406.08zm664.98 -55.83c19.35,-114.82 42.58,-228.34 80.95,-337.02 38.38,-108.68 91.93,-212.51 146.52,-296.56 54.59,-84.05 110.23,-148.33 197.07,-219.38 86.84,-71.06 204.87,-148.91 302.52,-194.04 97.65,-45.13 174.9,-57.55 270.43,-52.6 95.53,4.95 209.33,27.24 286.96,60.53 77.63,33.29 119.08,77.58 140.85,135.63 21.79,58.04 23.88,129.84 10.1,246.38 -13.78,116.52 -43.45,277.78 -80.23,465.49 -36.77,187.69 -80.64,401.84 -112.24,586.65 -31.61,184.8 -50.94,340.25 -139.95,453.77 -89,113.52 -247.69,185.1 -392.07,231.54 -144.37,46.44 -274.45,67.73 -378.3,54.19 -103.84,-13.55 -181.46,-61.94 -233.81,-116.44 -52.34,-54.51 -79.44,-115.14 -98.8,-179.64 -19.34,-64.5 -30.95,-132.87 -38.05,-215.43 -7.09,-82.57 -9.67,-179.31 -3.22,-285.74 6.45,-106.43 21.93,-222.53 41.27,-337.33z"/>
 </g>
</svg>
