<?xml version="1.0" encoding="UTF-8"?>
<!DOCTYPE svg PUBLIC "-//W3C//DTD SVG 1.1//EN" "http://www.w3.org/Graphics/SVG/1.1/DTD/svg11.dtd">
<!-- Creator: CorelDRAW 2020 (64-Bit) -->
<svg xmlns="http://www.w3.org/2000/svg" xml:space="preserve" width="151.691mm" height="67.8087mm" version="1.1" style="shape-rendering:geometricPrecision; text-rendering:geometricPrecision; image-rendering:optimizeQuality; fill-rule:evenodd; clip-rule:evenodd"
viewBox="0 0 15237.79 6811.58"
 xmlns:xlink="http://www.w3.org/1999/xlink"
 xmlns:xodm="http://www.corel.com/coreldraw/odm/2003">
 <defs>
  <style type="text/css">
   <![CDATA[
    .str0 {stroke:#2B2A29;stroke-width:20.09;stroke-miterlimit:22.9256}
    .fil0 {fill:#202B69}
    .fil1 {fill:#A7231F}
   ]]>
  </style>
 </defs>
 <g id="Слой_x0020_1">
  <metadata id="CorelCorpID_0Corel-Layer"/>
  <path class="fil0 str0" d="M3263.94 1249.29c22.14,-73.65 52.04,-206.55 84.16,-328.36 32.11,-121.82 66.44,-232.57 89.7,-315.07 23.25,-82.5 35.43,-136.77 13.29,-194.91 -22.15,-58.14 -78.63,-120.15 -162.24,-170.54 -83.61,-50.39 -194.36,-89.15 -306.01,-124.56 -111.66,-35.42 -224.25,-67.48 -351.41,-85.46 -127.17,-17.97 -268.92,-21.85 -404.03,-19.9 -135.11,1.94 -263.57,9.68 -396.52,40.34 -132.96,30.65 -270.42,84.21 -415.55,158.61 -145.14,74.4 -297.96,169.63 -442.04,294.84 -144.08,125.19 -279.42,280.35 -396.92,429.92 -117.5,149.56 -217.17,293.52 -296.9,446.35 -79.74,152.82 -139.54,314.51 -185.35,475.54 -45.81,161.03 -77.63,321.4 -83.17,490.84 -5.55,169.43 15.2,347.93 34.43,473.73 19.23,125.79 36.94,198.88 75.7,287.48 38.75,88.59 98.56,192.69 186.05,294.58 87.48,101.88 202.66,201.54 327.81,300.1 125.13,98.56 260.23,196.01 384.27,287.94 124.03,91.91 236.98,178.29 321.15,254.71 84.16,76.4 139.53,142.85 174.97,215.94 35.44,73.09 50.94,152.82 53.16,224.8 2.21,71.98 -8.86,136.21 -34.33,218.16 -25.47,81.95 -65.33,181.62 -106.31,266.89 -40.97,85.27 -83.06,156.14 -112.96,211.52 -29.9,55.37 -47.61,95.23 -62.01,142.85 -14.4,47.61 -25.47,102.98 -25.47,145.06 0,42.08 11.07,70.88 29.9,85.27 18.82,14.39 45.39,14.39 87.48,-4.43 42.08,-18.82 99.66,-56.47 168.33,-126.24 68.66,-69.77 148.39,-171.65 235.88,-286.82 87.48,-115.18 182.72,-243.64 261.35,-367.67 78.62,-124.03 140.64,-243.64 178.29,-354.38 37.65,-110.74 50.94,-212.63 50.94,-312.29 0,-99.67 -13.29,-197.13 -80.84,-310.08 -67.55,-112.96 -189.36,-241.43 -331.11,-347.74 -141.75,-106.32 -303.44,-190.48 -429.68,-268 -126.25,-77.52 -217.06,-148.4 -299.01,-231.45 -81.95,-83.05 -155.04,-178.29 -213.73,-283.5 -58.69,-105.2 -102.99,-220.38 -125.14,-346.62 -22.15,-126.25 -22.15,-263.57 -6.64,-400.89 15.5,-137.32 46.51,-274.65 91.91,-418.61 45.4,-143.97 105.2,-294.58 174.98,-428.57 69.76,-134 149.49,-251.39 245.85,-358.81 96.34,-107.42 209.29,-204.88 320.15,-284.12 110.85,-79.24 219.6,-140.27 340.31,-177.92 120.7,-37.65 253.37,-51.92 378.07,-56.8 124.69,-4.87 241.43,-0.34 320.45,16.34 79.03,16.69 120.36,45.54 160.56,88.67 40.19,43.13 79.25,100.57 108.75,173.59 29.49,73.01 49.43,161.6 65.5,256.84 16.05,95.24 28.24,197.13 37.1,264.68 8.86,67.54 14.4,100.77 25.48,121.82 11.07,21.03 27.67,29.89 48.72,36.54 21.03,6.64 46.51,11.07 70.87,11.07 24.36,0 47.62,-4.43 66.45,-13.85 18.81,-9.42 33.21,-23.83 55.35,-97.48z"/>
  <path class="fil0 str0" d="M4554.42 151.36c-27.97,-0.56 -51.78,1.09 -77.25,6.92 -25.47,5.82 -52.6,15.79 -75.57,31.85 -22.98,16.06 -41.82,38.2 -55.48,64.51 -13.67,26.31 -22.18,56.78 -23.84,85.58 -1.67,28.79 3.53,55.9 12.77,85.53 9.23,29.61 22.52,61.74 47.44,85.55 24.91,23.81 61.46,39.32 101.88,47.07 40.42,7.74 84.71,7.74 124.58,1.1 39.87,-6.65 75.31,-19.94 101.34,-41.54 26.03,-21.6 42.63,-51.49 52.61,-80.83 9.96,-29.35 13.28,-58.15 11.24,-88.46 -2.05,-30.32 -9.45,-62.15 -21.64,-88.17 -12.18,-26.03 -29.13,-46.25 -47.57,-62.44 -18.45,-16.2 -38.38,-28.38 -64.41,-35.86 -26.03,-7.48 -58.14,-10.26 -86.1,-10.81z"/>
  <path class="fil0 str0" d="M4111.19 1748.35c0.54,-51.5 -2.77,-76.97 -15.51,-96.34 -12.74,-19.39 -34.89,-32.68 -61.47,-49.28 -26.58,-16.61 -57.58,-36.55 -74.75,-58.69 -17.17,-22.15 -20.48,-46.52 -16.6,-68.66 3.87,-22.15 14.95,-42.09 47.06,-52.05 32.11,-9.96 85.26,-9.96 152.82,-7.19 67.55,2.76 149.5,8.31 215.4,18.82 65.89,10.52 115.72,26.03 146.73,55.93 31.01,29.89 43.18,74.18 42.63,135.1 -0.55,60.9 -13.84,138.42 -36.54,243.08 -22.7,104.65 -54.82,236.44 -86.92,363.79 -32.11,127.35 -64.23,250.29 -98,367.13 -33.77,116.83 -69.2,227.58 -94.67,316.18 -25.47,88.59 -40.98,155.03 -55.38,217.05 -14.39,62.02 -27.68,119.6 -39.86,180.51 -12.18,60.9 -23.26,125.13 -27.69,176.64 -4.43,51.49 -2.21,90.25 5.55,121.81 7.74,31.56 21.03,55.93 53.15,75.31 32.11,19.38 83.05,33.77 117.94,44.85 34.88,11.07 53.71,18.81 64.79,37.09 11.07,18.27 14.38,47.07 9.4,69.77 -4.98,22.7 -18.27,39.31 -55.37,49.83 -37.1,10.52 -98.01,14.95 -173.31,18.82 -75.31,3.88 -165,7.19 -233.66,2.76 -68.67,-4.43 -116.28,-16.6 -153.38,-52.6 -37.11,-35.99 -63.68,-95.79 -63.12,-203.76 0.55,-107.98 28.24,-264.13 59.8,-406.99 31.56,-142.85 67.01,-272.43 110.21,-422.49 43.18,-150.06 94.13,-320.6 137.33,-468.99 43.18,-148.4 78.61,-274.64 98.54,-376.52 19.93,-101.89 24.34,-179.42 24.89,-230.91z"/>
  <path class="fil0 str0" d="M8306.11 2909.16c29.89,-149.74 51.87,-281.42 79.29,-412.65 27.41,-131.24 60.27,-262.03 81.12,-356.49 20.85,-94.46 29.7,-152.6 35.85,-205.69 6.15,-53.09 9.59,-101.13 2.04,-138.78 -7.55,-37.65 -26.12,-64.91 -53.12,-79.64 -26.99,-14.74 -62.42,-16.96 -90.93,-26 -28.5,-9.04 -50.08,-24.91 -62.94,-40.46 -12.86,-15.55 -17.03,-30.77 -12.89,-50.52 4.15,-19.76 16.58,-44.03 49.38,-66.13 32.81,-22.11 85.96,-42.05 155.72,-54.22 69.77,-12.18 156.15,-16.61 236.99,-15.5 80.84,1.1 156.15,7.74 211.52,33.22 55.37,25.47 90.81,69.76 128.09,94.69 37.29,24.91 76.41,30.46 127.35,11.63 50.94,-18.82 113.68,-62.01 185.48,-97.72 71.8,-35.71 152.64,-63.96 231.4,-88.47 78.78,-24.52 155.46,-45.31 242.39,-47.81 86.94,-2.5 184.13,13.31 270.37,30.08 86.24,16.76 161.55,34.48 236.85,79.88 75.31,45.4 150.61,118.49 208.2,166.12 57.59,47.61 97.45,69.75 162.78,50.93 65.34,-18.82 156.15,-78.62 266.89,-125.13 110.75,-46.51 241.42,-79.74 346.62,-94.13 105.2,-14.39 184.94,-9.96 277.96,-1.1 93.02,8.86 199.34,22.15 301.22,70.88 101.89,48.72 199.34,132.89 249.17,240.31 49.83,107.41 52.05,238.08 37.65,413.06 -14.39,174.97 -45.39,394.25 -74.19,549.29 -28.79,155.04 -55.37,245.85 -83.05,337.76 -27.68,91.91 -56.48,184.94 -74.2,273.72 -17.72,88.77 -24.36,173.31 -22.15,240.87 2.22,67.54 13.29,118.12 58.69,150.06 45.41,31.92 125.14,45.21 180.51,69.58 55.38,24.36 86.38,59.79 95.24,94.12 8.86,34.32 -4.43,67.55 -45.4,91.91 -40.97,24.36 -109.63,39.87 -231.45,44.3 -121.81,4.43 -296.79,-2.22 -400.89,-12.18 -104.09,-9.96 -137.32,-23.25 -156.14,-88.59 -18.82,-65.34 -23.25,-182.72 3.32,-373.2 26.58,-190.48 84.16,-454.05 135.1,-674.42 50.95,-220.38 95.24,-397.57 112.96,-544.86 17.72,-147.29 8.86,-264.67 -11.08,-345.52 -19.93,-80.84 -50.93,-125.13 -102.98,-156.14 -52.04,-31.01 -125.13,-48.73 -200.44,-50.94 -75.3,-2.22 -152.82,11.07 -228.13,24.36 -75.3,13.29 -148.4,26.58 -209.31,48.73 -60.9,22.15 -109.62,53.15 -156.14,86.38 -46.51,33.22 -90.8,68.65 -127.34,132.89 -36.54,64.23 -65.34,157.25 -95.25,289.03 -29.89,131.78 -60.89,302.33 -97.44,483.95 -36.54,181.61 -78.63,374.31 -117.4,548.17 -38.75,173.86 -74.18,328.9 -91.37,431.91 -17.18,102.99 -16.11,153.94 -80.34,174.99 -64.23,21.04 -193.76,12.16 -288.45,3.87 -94.69,-8.31 -154.52,-16.05 -153.41,-127.9 1.1,-111.85 63.16,-327.81 118.55,-537.67 55.39,-209.87 104.11,-413.64 146.19,-597.46 42.09,-183.84 77.52,-347.74 91.91,-469.55 14.4,-121.82 7.75,-201.56 -14.39,-265.79 -22.14,-64.23 -59.8,-112.95 -112.96,-151.7 -53.15,-38.76 -121.81,-67.56 -186.07,-85.55 -64.25,-17.99 -124.1,-25.16 -191.68,-24.87 -67.57,0.28 -142.87,8.03 -219.27,32.66 -76.38,24.63 -153.85,66.14 -211.41,104.61 -57.56,38.47 -95.22,73.91 -136.19,201.27 -40.97,127.35 -85.26,346.62 -131.78,592.47 -46.51,245.85 -95.23,518.28 -132.08,741.15 -36.84,222.87 -61.79,396.21 -124.36,482.59 -62.57,86.38 -162.75,85.81 -258.81,78.89 -96.05,-6.93 -187.97,-20.22 -233.92,-46.8 -45.96,-26.58 -45.96,-66.44 -30.46,-162.23 15.51,-95.79 46.51,-247.52 80.91,-407.26 34.42,-159.75 72.23,-327.52 102.12,-477.25z"/>
  <path class="fil1 str0" d="M2001.53 1167.75c-78.63,64.78 -187.16,172.21 -285.17,284.06 -98.01,111.85 -185.49,228.14 -250.82,336.12 -65.34,107.97 -108.54,207.63 -139,308.4 -30.46,100.76 -48.17,202.65 -53.7,304.53 -5.55,101.88 1.1,203.77 23.25,295.68 22.14,91.91 59.8,173.86 145.07,269.1 85.26,95.24 218.15,203.77 370.98,310.09 152.82,106.31 325.58,210.4 451.83,312.29 126.25,101.88 205.98,201.55 270.22,293.46 64.23,91.91 112.95,176.08 145.06,295.68 32.11,119.6 47.62,274.64 40.98,446.29 -6.65,171.65 -35.45,359.91 -76.42,514.96 -40.97,155.04 -94.12,276.85 -156.14,403.1 -62.02,126.25 -132.9,256.93 -228.14,363.25 -95.24,106.31 -214.83,188.25 -324.46,261.34 -109.63,73.09 -209.3,137.32 -325.58,179.4 -116.28,42.08 -249.18,62.02 -369.89,67.55 -120.71,5.53 -229.23,-3.31 -316.72,-36.53 -87.49,-33.23 -153.93,-90.81 -209.3,-196.01 -55.38,-105.21 -99.67,-258.03 -135.11,-368.77 -35.44,-110.75 -62.02,-179.41 -109.63,-221.49 -47.62,-42.09 -116.28,-57.59 -169.43,-40.97 -53.16,16.6 -90.82,65.33 -137.33,238.09 -46.51,172.76 -101.88,469.55 -104.09,634.55 -2.22,165 48.72,198.23 131.77,230.35 83.05,32.11 198.23,63.12 328.91,88.6 130.67,25.46 276.86,45.4 452.94,55.37 176.07,9.96 382.05,9.96 614.61,-36.54 232.56,-46.52 491.7,-139.54 708.76,-252.5 217.05,-112.96 392.03,-245.85 550.39,-408.63 158.35,-162.79 300.11,-355.49 408.64,-545.96 108.53,-190.48 183.83,-378.75 236.99,-572.54 53.16,-193.8 84.16,-393.14 90.81,-563.68 6.64,-170.55 -11.08,-312.3 -43.19,-450.72 -32.11,-138.43 -78.62,-273.53 -147.28,-396.46 -68.66,-122.92 -159.47,-233.67 -272.43,-336.66 -112.96,-102.99 -248.06,-198.23 -363.23,-274.65 -115.18,-76.41 -210.42,-133.99 -299.01,-196.01 -88.6,-62.02 -170.55,-128.46 -245.85,-190.48 -75.31,-62.02 -143.97,-119.6 -190.48,-186.04 -46.51,-66.45 -70.88,-141.76 -67.55,-238.1 3.32,-96.34 34.32,-213.73 84.16,-339.98 49.83,-126.25 118.49,-261.35 172.76,-365.45 54.26,-104.1 94.13,-177.19 107.42,-231.45 13.29,-54.26 0,-89.69 -27.68,-111.84 -27.68,-22.15 -69.77,-31.01 -115.18,-24.36 -45.4,6.64 -94.12,28.79 -172.75,93.58z"/>
  <path class="fil0 str0" d="M5077.96 2761.48c-9.96,77.52 -16.61,166.11 -17.72,250.28 -1.1,84.16 3.32,163.9 13.29,240.31 9.96,76.4 25.47,149.49 46.74,225.8 21.26,76.29 48.27,155.8 84.81,216.72 36.54,60.9 82.62,103.22 132.24,137.66 49.61,34.45 102.76,61.02 174.75,83.17 71.98,22.15 162.79,39.87 248.07,44.3 85.27,4.43 165,-4.43 241.42,-19.93 76.41,-15.51 149.5,-37.66 208.2,-59.81 58.69,-22.15 102.98,-44.29 143.96,-62.01 40.97,-17.72 78.63,-31.01 108.54,-32.11 29.89,-1.12 52.03,9.96 58.68,49.83 6.64,39.86 -2.21,108.53 -31,202.66 -28.8,94.12 -77.53,213.72 -118.5,323.36 -40.97,109.63 -74.19,209.3 -115.93,300.16 -41.74,90.86 -91.98,172.9 -136.28,229.38 -44.3,56.47 -82.64,87.39 -123.98,110.97 -41.34,23.57 -85.68,39.79 -137.66,46.96 -51.98,7.16 -111.63,5.27 -185.81,-10.6 -74.18,-15.87 -162.89,-45.71 -244.9,-82.77 -82.01,-37.08 -157.32,-81.37 -221.55,-113.48 -64.23,-32.11 -117.39,-52.05 -165,-62.02 -47.62,-9.96 -89.7,-9.96 -127.35,3.32 -37.65,13.29 -70.88,39.87 -90.81,94.13 -19.94,54.26 -26.58,136.21 -25.47,202.66 1.1,66.44 9.96,117.38 57.59,151.71 47.61,34.32 133.99,52.04 287.93,75.3 153.93,23.25 375.41,52.05 563.68,49.84 188.26,-2.22 343.3,-35.45 475.08,-87.49 131.78,-52.05 240.31,-122.92 351.06,-261.35 110.74,-138.43 223.69,-344.42 330.01,-605.77 106.31,-261.35 205.98,-578.08 279.07,-859.35 73.09,-281.29 119.61,-527.14 159.85,-730.16 40.23,-203.04 74.18,-363.24 114.05,-511.64 39.87,-148.4 85.64,-284.98 124.03,-396.46 38.39,-111.48 69.4,-197.86 84.9,-260.99 15.51,-63.12 15.51,-102.98 1.12,-138.42 -14.39,-35.44 -43.19,-66.45 -74.2,-80.84 -31,-14.39 -64.23,-12.18 -100.77,-2.21 -36.54,9.96 -76.4,27.67 -122.91,36.53 -46.52,8.86 -99.68,8.86 -174.98,-1.1 -75.31,-9.96 -172.77,-29.9 -280.18,-48.73 -107.42,-18.82 -224.8,-36.53 -365.45,-33.21 -140.64,3.31 -304.54,27.68 -431.9,68.66 -127.35,40.97 -218.16,98.55 -303.75,157.69 -85.59,59.13 -165.96,119.79 -243.79,199.96 -77.84,80.17 -153.14,179.84 -207.46,269.29 -54.32,89.45 -87.65,168.68 -118.33,246.87 -30.7,78.19 -58.75,155.34 -79.43,227.14 -20.67,71.79 -33.96,138.23 -43.93,215.76zm569.24 157.27c2.21,-67.55 8.85,-129.56 26.57,-214.84 17.72,-85.27 46.52,-193.79 76.42,-283.5 29.89,-89.7 60.89,-160.57 97.44,-229.23 36.54,-68.67 78.63,-135.11 118.34,-191.01 39.7,-55.9 77.02,-101.26 122.55,-144.3 45.53,-43.05 99.26,-83.79 153.68,-114.27 54.43,-30.49 109.55,-50.7 182.52,-66.34 72.96,-15.65 163.77,-26.73 251.26,-23.41 87.48,3.32 171.64,21.04 228.13,46.52 56.47,25.46 85.27,58.69 93.03,112.96 7.74,54.25 -5.55,129.56 -29.9,228.13 -24.37,98.55 -59.81,220.36 -98.56,382.05 -38.76,161.68 -80.84,363.24 -124.03,530.46 -43.19,167.21 -87.49,300.11 -150.68,392.2 -63.19,92.08 -145.27,143.34 -231.64,175.45 -86.38,32.11 -177.06,45.08 -248.6,47.69 -71.55,2.6 -123.98,-5.14 -176.92,-26.3 -52.94,-21.16 -106.39,-55.71 -144.41,-98.34 -38.02,-42.64 -60.61,-93.35 -81.87,-146.39 -21.26,-53.05 -41.2,-108.43 -52.27,-172.66 -11.08,-64.23 -13.29,-137.32 -11.07,-204.87z"/>
  <path class="fil0 str0" d="M12814.58 2762.48c-19.38,117.67 -24.91,234.5 -23.81,335.26 1.1,100.76 8.86,185.47 21.59,286.79 12.73,101.33 30.44,219.29 69.74,315.92 39.32,96.63 100.22,171.93 165.57,233.66 65.34,61.73 135.12,109.89 235.34,135.08 100.23,25.18 230.91,27.39 350.51,-1.95 119.61,-29.34 228.13,-90.26 318.39,-146.18 90.26,-55.92 162.24,-106.87 223.15,-133.44 60.91,-26.58 110.75,-28.8 147.85,8.86 37.1,37.65 61.47,115.17 83.05,172.76 21.6,57.58 40.42,95.24 114.06,119.6 73.64,24.36 202.11,35.44 299.56,32.11 97.46,-3.32 163.9,-21.04 198.23,-58.97 34.33,-37.92 36.54,-96.04 6.64,-125.1 -29.89,-29.06 -91.9,-29.06 -140.28,-54.6 -48.37,-25.54 -83.09,-76.62 -94.73,-158.85 -11.62,-82.24 -0.16,-195.63 26.61,-327.64 26.78,-132.01 68.87,-282.61 117.59,-477.51 48.73,-194.91 104.11,-434.12 154.5,-639.54 50.39,-205.43 95.79,-377.08 120.15,-489.49 24.37,-112.41 27.68,-165.56 -0.55,-198.22 -28.24,-32.68 -88.05,-44.85 -136.22,-33.77 -48.17,11.07 -84.71,45.39 -116.27,65.89 -31.56,20.48 -58.13,27.13 -100.22,8.86 -42.08,-18.27 -99.66,-61.47 -160.57,-91.91 -60.9,-30.46 -125.14,-48.18 -204.88,-65.61 -79.73,-17.44 -174.97,-34.59 -279.35,-33.19 -104.37,1.4 -217.88,21.33 -320.32,51.5 -102.44,30.18 -193.82,70.58 -290.73,125.67 -96.91,55.09 -199.34,124.86 -292.92,205.71 -93.57,80.84 -178.28,172.76 -244.45,271.88 -66.16,99.11 -113.76,205.41 -154.19,317.81 -40.41,112.41 -73.64,230.93 -93.02,348.6zm570.85 -47.93c16.61,-98.56 36.55,-196.02 69.49,-289.31 32.95,-93.3 78.92,-182.43 125.78,-254.59 46.86,-72.16 94.63,-127.33 169.17,-188.33 74.55,-61.01 175.87,-127.84 259.7,-166.57 83.83,-38.74 150.15,-49.4 232.16,-45.15 82.01,4.25 179.7,23.39 246.34,51.96 66.64,28.58 102.22,66.6 120.92,116.44 18.7,49.82 20.5,111.46 8.67,211.5 -11.83,100.03 -37.3,238.47 -68.87,399.6 -31.56,161.13 -69.22,344.97 -96.35,503.61 -27.13,158.65 -43.73,292.09 -120.14,389.55 -76.4,97.45 -212.63,158.9 -336.58,198.77 -123.94,39.87 -235.6,58.14 -324.75,46.52 -89.14,-11.63 -155.77,-53.17 -200.72,-99.96 -44.93,-46.79 -68.2,-98.85 -84.81,-154.22 -16.6,-55.37 -26.57,-114.06 -32.67,-184.93 -6.09,-70.88 -8.3,-153.93 -2.76,-245.3 5.53,-91.36 18.82,-191.03 35.43,-289.59z"/>
 </g>
</svg>
